{
    "asset": {
        "version": "2.0",
        "generator": "Open Asset Import Library (assimp v5.2.cf7d3637)"
    },
    "extensionsUsed": [
        "KHR_materials_volume",
        "FB_ngon_encoding"
    ],
    "accessors": [
        {
            "bufferView": 0,
            "byteOffset": 0,
            "componentType": 5126,
            "count": 2340,
            "type": "VEC3",
            "max": [
                92.98040771484375,
                0.11475491523742676,
                24.178791046142579
            ],
            "min": [
                -32.64459228515625,
                -1.1167209148406983,
                -48.32120895385742
            ]
        },
        {
            "bufferView": 1,
            "byteOffset": 0,
            "componentType": 5126,
            "count": 2340,
            "type": "VEC3",
            "max": [
                0.9959076046943665,
                0.9999997615814209,
                0.999621570110321
            ],
            "min": [
                -0.9955248832702637,
                -0.9999997615814209,
                -0.9999164938926697
            ]
        },
        {
            "bufferView": 2,
            "byteOffset": 0,
            "componentType": 5125,
            "count": 2340,
            "type": "SCALAR",
            "max": [
                2339
            ],
            "min": [
                0
            ]
        },
        {
            "bufferView": 3,
            "byteOffset": 0,
            "componentType": 5126,
            "count": 6306,
            "type": "VEC3",
            "max": [
                92.98040771484375,
                0.44306302070617678,
                24.178791046142579
            ],
            "min": [
                -32.70709228515625,
                -1.2119204998016358,
                -48.32120895385742
            ]
        },
        {
            "bufferView": 4,
            "byteOffset": 0,
            "componentType": 5126,
            "count": 6306,
            "type": "VEC3",
            "max": [
                0.9955248832702637,
                1.0,
                0.9999164938926697
            ],
            "min": [
                -0.9955264329910278,
                -0.9999996423721314,
                -0.9999164938926697
            ]
        },
        {
            "bufferView": 5,
            "byteOffset": 0,
            "componentType": 5125,
            "count": 6306,
            "type": "SCALAR",
            "max": [
                6305
            ],
            "min": [
                0
            ]
        },
        {
            "bufferView": 6,
            "byteOffset": 0,
            "componentType": 5126,
            "count": 576,
            "type": "VEC3",
            "max": [
                35.41790771484375,
                0.29325222969055178,
                14.178790092468262
            ],
            "min": [
                10.480406761169434,
                0.16326260566711427,
                -10.821209907531739
            ]
        },
        {
            "bufferView": 7,
            "byteOffset": 0,
            "componentType": 5126,
            "count": 576,
            "type": "VEC3",
            "max": [
                0.9924001097679138,
                0.9998000860214233,
                0.9952207207679749
            ],
            "min": [
                -0.9924001097679138,
                -0.9998000860214233,
                -0.9952207207679749
            ]
        },
        {
            "bufferView": 8,
            "byteOffset": 0,
            "componentType": 5125,
            "count": 576,
            "type": "SCALAR",
            "max": [
                575
            ],
            "min": [
                0
            ]
        },
        {
            "bufferView": 9,
            "byteOffset": 0,
            "componentType": 5126,
            "count": 2292,
            "type": "VEC3",
            "max": [
                93.16790771484375,
                0.27767300605773928,
                25.178791046142579
            ],
            "min": [
                -33.83209228515625,
                -0.9669253826141357,
                -49.32120895385742
            ]
        },
        {
            "bufferView": 10,
            "byteOffset": 0,
            "componentType": 5126,
            "count": 2292,
            "type": "VEC3",
            "max": [
                0.9954513907432556,
                0.9998001456260681,
                0.9999164938926697
            ],
            "min": [
                -0.9954879283905029,
                -0.9998001456260681,
                -0.9999164938926697
            ]
        },
        {
            "bufferView": 11,
            "byteOffset": 0,
            "componentType": 5125,
            "count": 2292,
            "type": "SCALAR",
            "max": [
                2291
            ],
            "min": [
                0
            ]
        },
        {
            "bufferView": 12,
            "byteOffset": 0,
            "componentType": 5126,
            "count": 2259,
            "type": "VEC3",
            "max": [
                93.60540771484375,
                1.4922420978546143,
                26.178791046142579
            ],
            "min": [
                -34.70709228515625,
                -1.9172732830047608,
                -52.32120895385742
            ]
        },
        {
            "bufferView": 13,
            "byteOffset": 0,
            "componentType": 5126,
            "count": 2259,
            "type": "VEC3",
            "max": [
                0.9955264329910278,
                1.0,
                0.999621570110321
            ],
            "min": [
                -0.9917091131210327,
                -1.0,
                -0.9922816753387451
            ]
        },
        {
            "bufferView": 14,
            "byteOffset": 0,
            "componentType": 5125,
            "count": 2259,
            "type": "SCALAR",
            "max": [
                2258
            ],
            "min": [
                0
            ]
        },
        {
            "bufferView": 15,
            "byteOffset": 0,
            "componentType": 5126,
            "count": 5208,
            "type": "VEC3",
            "max": [
                93.16790771484375,
                0.21326565742492677,
                25.178791046142579
            ],
            "min": [
                -33.83209228515625,
                -1.2167117595672608,
                -49.32120895385742
            ]
        },
        {
            "bufferView": 16,
            "byteOffset": 0,
            "componentType": 5126,
            "count": 5208,
            "type": "VEC3",
            "max": [
                0.9959076046943665,
                0.9999997615814209,
                0.9999164938926697
            ],
            "min": [
                -0.9955248832702637,
                -0.9999997615814209,
                -0.9999164938926697
            ]
        },
        {
            "bufferView": 17,
            "byteOffset": 0,
            "componentType": 5125,
            "count": 5208,
            "type": "SCALAR",
            "max": [
                5207
            ],
            "min": [
                0
            ]
        },
        {
            "bufferView": 18,
            "byteOffset": 0,
            "componentType": 5126,
            "count": 5208,
            "type": "VEC3",
            "max": [
                93.16790771484375,
                0.11325955390930176,
                25.178791046142579
            ],
            "min": [
                -33.83209228515625,
                -1.3667209148406983,
                -49.32120895385742
            ]
        },
        {
            "bufferView": 19,
            "byteOffset": 0,
            "componentType": 5126,
            "count": 5208,
            "type": "VEC3",
            "max": [
                0.9959076046943665,
                0.9999997615814209,
                0.9999164938926697
            ],
            "min": [
                -0.9955248832702637,
                -0.9999997615814209,
                -0.9999164938926697
            ]
        },
        {
            "bufferView": 20,
            "byteOffset": 0,
            "componentType": 5125,
            "count": 5208,
            "type": "SCALAR",
            "max": [
                5207
            ],
            "min": [
                0
            ]
        },
        {
            "bufferView": 21,
            "byteOffset": 0,
            "componentType": 5126,
            "count": 576,
            "type": "VEC3",
            "max": [
                35.41790771484375,
                -0.036734338849782947,
                14.178790092468262
            ],
            "min": [
                10.480406761169434,
                -0.38674044609069826,
                -10.821209907531739
            ]
        },
        {
            "bufferView": 22,
            "byteOffset": 0,
            "componentType": 5126,
            "count": 576,
            "type": "VEC3",
            "max": [
                0.9924001097679138,
                0.9998000860214233,
                0.9952207207679749
            ],
            "min": [
                -0.9924001097679138,
                -0.9998000860214233,
                -0.9952207207679749
            ]
        },
        {
            "bufferView": 23,
            "byteOffset": 0,
            "componentType": 5125,
            "count": 576,
            "type": "SCALAR",
            "max": [
                575
            ],
            "min": [
                0
            ]
        },
        {
            "bufferView": 24,
            "byteOffset": 0,
            "componentType": 5126,
            "count": 4632,
            "type": "VEC3",
            "max": [
                93.16790771484375,
                -0.052328821271657947,
                25.178791046142579
            ],
            "min": [
                -33.83209228515625,
                -1.6667239665985108,
                -49.32120895385742
            ]
        },
        {
            "bufferView": 25,
            "byteOffset": 0,
            "componentType": 5126,
            "count": 4632,
            "type": "VEC3",
            "max": [
                0.9959076046943665,
                0.9999997615814209,
                0.9999164938926697
            ],
            "min": [
                -0.9955248832702637,
                -0.9999997615814209,
                -0.9999164938926697
            ]
        },
        {
            "bufferView": 26,
            "byteOffset": 0,
            "componentType": 5125,
            "count": 4632,
            "type": "SCALAR",
            "max": [
                4631
            ],
            "min": [
                0
            ]
        }
    ],
    "buffers": [
        {
            "byteLength": 823116,
            "uri": "result.bin"
        }
    ],
    "bufferViews": [
        {
            "buffer": 0,
            "byteOffset": 0,
            "byteLength": 28080,
            "target": 34962
        },
        {
            "buffer": 0,
            "byteOffset": 28080,
            "byteLength": 28080,
            "target": 34962
        },
        {
            "buffer": 0,
            "byteOffset": 56160,
            "byteLength": 9360,
            "target": 34963
        },
        {
            "buffer": 0,
            "byteOffset": 65520,
            "byteLength": 75672,
            "target": 34962
        },
        {
            "buffer": 0,
            "byteOffset": 141192,
            "byteLength": 75672,
            "target": 34962
        },
        {
            "buffer": 0,
            "byteOffset": 216864,
            "byteLength": 25224,
            "target": 34963
        },
        {
            "buffer": 0,
            "byteOffset": 242088,
            "byteLength": 6912,
            "target": 34962
        },
        {
            "buffer": 0,
            "byteOffset": 249000,
            "byteLength": 6912,
            "target": 34962
        },
        {
            "buffer": 0,
            "byteOffset": 255912,
            "byteLength": 2304,
            "target": 34963
        },
        {
            "buffer": 0,
            "byteOffset": 258216,
            "byteLength": 27504,
            "target": 34962
        },
        {
            "buffer": 0,
            "byteOffset": 285720,
            "byteLength": 27504,
            "target": 34962
        },
        {
            "buffer": 0,
            "byteOffset": 313224,
            "byteLength": 9168,
            "target": 34963
        },
        {
            "buffer": 0,
            "byteOffset": 322392,
            "byteLength": 27108,
            "target": 34962
        },
        {
            "buffer": 0,
            "byteOffset": 349500,
            "byteLength": 27108,
            "target": 34962
        },
        {
            "buffer": 0,
            "byteOffset": 376608,
            "byteLength": 9036,
            "target": 34963
        },
        {
            "buffer": 0,
            "byteOffset": 385644,
            "byteLength": 62496,
            "target": 34962
        },
        {
            "buffer": 0,
            "byteOffset": 448140,
            "byteLength": 62496,
            "target": 34962
        },
        {
            "buffer": 0,
            "byteOffset": 510636,
            "byteLength": 20832,
            "target": 34963
        },
        {
            "buffer": 0,
            "byteOffset": 531468,
            "byteLength": 62496,
            "target": 34962
        },
        {
            "buffer": 0,
            "byteOffset": 593964,
            "byteLength": 62496,
            "target": 34962
        },
        {
            "buffer": 0,
            "byteOffset": 656460,
            "byteLength": 20832,
            "target": 34963
        },
        {
            "buffer": 0,
            "byteOffset": 677292,
            "byteLength": 6912,
            "target": 34962
        },
        {
            "buffer": 0,
            "byteOffset": 684204,
            "byteLength": 6912,
            "target": 34962
        },
        {
            "buffer": 0,
            "byteOffset": 691116,
            "byteLength": 2304,
            "target": 34963
        },
        {
            "buffer": 0,
            "byteOffset": 693420,
            "byteLength": 55584,
            "target": 34962
        },
        {
            "buffer": 0,
            "byteOffset": 749004,
            "byteLength": 55584,
            "target": 34962
        },
        {
            "buffer": 0,
            "byteOffset": 804588,
            "byteLength": 18528,
            "target": 34963
        }
    ],
    "materials": [
        {
            "name": "material",
            "pbrMetallicRoughness": {
                "baseColorFactor": [
                    0.13286831974983216,
                    0.13286831974983216,
                    0.13286831974983216,
                    1.0
                ],
                "metallicFactor": 0.5,
                "roughnessFactor": 0.5
            }
        },
        {
            "name": "material",
            "pbrMetallicRoughness": {
                "baseColorFactor": [
                    0.5271151065826416,
                    0.5271151065826416,
                    0.5271151065826416,
                    1.0
                ],
                "metallicFactor": 0.5,
                "roughnessFactor": 0.5
            }
        },
        {
            "name": "material",
            "pbrMetallicRoughness": {
                "baseColorFactor": [
                    0.3762621283531189,
                    0.28314873576164248,
                    0.08437620848417282,
                    1.0
                ],
                "metallicFactor": 0.5,
                "roughnessFactor": 0.5
            }
        },
        {
            "name": "material",
            "pbrMetallicRoughness": {
                "baseColorFactor": [
                    1.0,
                    0.21223075687885285,
                    0.21223075687885285,
                    1.0
                ],
                "metallicFactor": 0.5,
                "roughnessFactor": 0.5
            }
        },
        {
            "name": "material",
            "pbrMetallicRoughness": {
                "baseColorFactor": [
                    0.013702083379030228,
                    0.21223075687885285,
                    0.0,
                    1.0
                ],
                "metallicFactor": 0.5,
                "roughnessFactor": 0.5
            }
        },
        {
            "name": "material",
            "pbrMetallicRoughness": {
                "baseColorFactor": [
                    0.03310476616024971,
                    0.03310476616024971,
                    0.03310476616024971,
                    1.0
                ],
                "metallicFactor": 0.5,
                "roughnessFactor": 0.5
            }
        },
        {
            "name": "material",
            "pbrMetallicRoughness": {
                "baseColorFactor": [
                    0.3762621283531189,
                    0.08437620848417282,
                    0.0,
                    1.0
                ],
                "metallicFactor": 0.5,
                "roughnessFactor": 0.5
            }
        },
        {
            "name": "material",
            "pbrMetallicRoughness": {
                "baseColorFactor": [
                    0.019382361322641374,
                    0.05448027700185776,
                    0.07227185368537903,
                    1.0
                ],
                "metallicFactor": 0.5,
                "roughnessFactor": 0.5
            }
        },
        {
            "name": "material",
            "pbrMetallicRoughness": {
                "baseColorFactor": [
                    1.0,
                    0.520995557308197,
                    0.0,
                    1.0
                ],
                "metallicFactor": 0.5,
                "roughnessFactor": 0.5
            }
        },
        {
            "name": "material"
        }
    ],
    "meshes": [
        {
            "name": "meshes[0]",
            "primitives": [
                {
                    "mode": 4,
                    "material": 0,
                    "indices": 2,
                    "attributes": {
                        "POSITION": 0,
                        "NORMAL": 1
                    }
                }
            ]
        },
        {
            "name": "meshes[1]",
            "primitives": [
                {
                    "mode": 4,
                    "material": 1,
                    "indices": 5,
                    "attributes": {
                        "POSITION": 3,
                        "NORMAL": 4
                    }
                }
            ]
        },
        {
            "name": "meshes[2]",
            "primitives": [
                {
                    "mode": 4,
                    "material": 2,
                    "indices": 8,
                    "attributes": {
                        "POSITION": 6,
                        "NORMAL": 7
                    }
                }
            ]
        },
        {
            "name": "meshes[3]",
            "primitives": [
                {
                    "mode": 4,
                    "material": 3,
                    "indices": 11,
                    "attributes": {
                        "POSITION": 9,
                        "NORMAL": 10
                    }
                }
            ]
        },
        {
            "name": "meshes[4]",
            "primitives": [
                {
                    "mode": 4,
                    "material": 4,
                    "indices": 14,
                    "attributes": {
                        "POSITION": 12,
                        "NORMAL": 13
                    }
                }
            ]
        },
        {
            "name": "meshes[5]",
            "primitives": [
                {
                    "mode": 4,
                    "material": 5,
                    "indices": 17,
                    "attributes": {
                        "POSITION": 15,
                        "NORMAL": 16
                    }
                }
            ]
        },
        {
            "name": "meshes[6]",
            "primitives": [
                {
                    "mode": 4,
                    "material": 6,
                    "indices": 20,
                    "attributes": {
                        "POSITION": 18,
                        "NORMAL": 19
                    }
                }
            ]
        },
        {
            "name": "meshes[7]",
            "primitives": [
                {
                    "mode": 4,
                    "material": 7,
                    "indices": 23,
                    "attributes": {
                        "POSITION": 21,
                        "NORMAL": 22
                    }
                }
            ]
        },
        {
            "name": "meshes[8]",
            "primitives": [
                {
                    "mode": 4,
                    "material": 8,
                    "indices": 26,
                    "attributes": {
                        "POSITION": 24,
                        "NORMAL": 25
                    }
                }
            ]
        }
    ],
    "nodes": [
        {
            "name": "nodes[9]",
            "children": [
                1,
                2,
                3,
                4,
                5,
                6,
                7,
                8,
                9
            ]
        },
        {
            "name": "nodes[0]",
            "mesh": 0
        },
        {
            "name": "nodes[1]",
            "mesh": 1
        },
        {
            "name": "nodes[2]",
            "mesh": 2
        },
        {
            "name": "nodes[3]",
            "mesh": 3
        },
        {
            "name": "nodes[4]",
            "mesh": 4
        },
        {
            "name": "nodes[5]",
            "mesh": 5
        },
        {
            "name": "nodes[6]",
            "mesh": 6
        },
        {
            "name": "nodes[7]",
            "mesh": 7
        },
        {
            "name": "nodes[8]",
            "mesh": 8
        }
    ],
    "scenes": [
        {
            "nodes": [
                0
            ]
        }
    ],
    "scene": 0
}