{
    "asset": {
        "version": "2.0",
        "generator": "Open Asset Import Library (assimp v5.2.cf7d3637)"
    },
    "extensionsUsed": [
        "KHR_materials_volume",
        "FB_ngon_encoding"
    ],
    "accessors": [
        {
            "bufferView": 0,
            "byteOffset": 0,
            "componentType": 5126,
            "count": 2676,
            "type": "VEC3",
            "max": [
                92.98040771484375,
                0.44173550605773928,
                59.67879104614258
            ],
            "min": [
                -32.64459228515625,
                -1.1167209148406983,
                -48.32120895385742
            ]
        },
        {
            "bufferView": 1,
            "byteOffset": 0,
            "componentType": 5126,
            "count": 2676,
            "type": "VEC3",
            "max": [
                0.9959076046943665,
                0.9999997615814209,
                0.999621570110321
            ],
            "min": [
                -0.9993261098861694,
                -0.9999997615814209,
                -0.9999164938926697
            ]
        },
        {
            "bufferView": 2,
            "byteOffset": 0,
            "componentType": 5125,
            "count": 2676,
            "type": "SCALAR",
            "max": [
                2675
            ],
            "min": [
                0
            ]
        },
        {
            "bufferView": 3,
            "byteOffset": 0,
            "componentType": 5126,
            "count": 6870,
            "type": "VEC3",
            "max": [
                92.98040771484375,
                0.47902798652648928,
                59.67879104614258
            ],
            "min": [
                -32.70709228515625,
                -1.2119204998016358,
                -48.32120895385742
            ]
        },
        {
            "bufferView": 4,
            "byteOffset": 0,
            "componentType": 5126,
            "count": 6870,
            "type": "VEC3",
            "max": [
                0.9993261098861694,
                1.0,
                0.9999164938926697
            ],
            "min": [
                -0.9993261098861694,
                -0.9999996423721314,
                -0.9999164938926697
            ]
        },
        {
            "bufferView": 5,
            "byteOffset": 0,
            "componentType": 5125,
            "count": 6870,
            "type": "SCALAR",
            "max": [
                6869
            ],
            "min": [
                0
            ]
        },
        {
            "bufferView": 6,
            "byteOffset": 0,
            "componentType": 5126,
            "count": 576,
            "type": "VEC3",
            "max": [
                35.41790771484375,
                0.29325222969055178,
                14.178790092468262
            ],
            "min": [
                10.480406761169434,
                0.16326260566711427,
                -10.821209907531739
            ]
        },
        {
            "bufferView": 7,
            "byteOffset": 0,
            "componentType": 5126,
            "count": 576,
            "type": "VEC3",
            "max": [
                0.9924001097679138,
                0.9998000860214233,
                0.9952207207679749
            ],
            "min": [
                -0.9924001097679138,
                -0.9998000860214233,
                -0.9952207207679749
            ]
        },
        {
            "bufferView": 8,
            "byteOffset": 0,
            "componentType": 5125,
            "count": 576,
            "type": "SCALAR",
            "max": [
                575
            ],
            "min": [
                0
            ]
        },
        {
            "bufferView": 9,
            "byteOffset": 0,
            "componentType": 5126,
            "count": 2628,
            "type": "VEC3",
            "max": [
                93.16790771484375,
                0.5240261554718018,
                60.17879104614258
            ],
            "min": [
                -33.83209228515625,
                -0.9669253826141357,
                -49.32120895385742
            ]
        },
        {
            "bufferView": 10,
            "byteOffset": 0,
            "componentType": 5126,
            "count": 2628,
            "type": "VEC3",
            "max": [
                0.9993261098861694,
                0.9998001456260681,
                0.9999164938926697
            ],
            "min": [
                -0.9993261098861694,
                -0.9998001456260681,
                -0.9999164938926697
            ]
        },
        {
            "bufferView": 11,
            "byteOffset": 0,
            "componentType": 5125,
            "count": 2628,
            "type": "SCALAR",
            "max": [
                2627
            ],
            "min": [
                0
            ]
        },
        {
            "bufferView": 12,
            "byteOffset": 0,
            "componentType": 5126,
            "count": 1719,
            "type": "VEC3",
            "max": [
                93.60540771484375,
                1.4903347492218018,
                60.67879104614258
            ],
            "min": [
                -34.70709228515625,
                -1.9172732830047608,
                -52.32120895385742
            ]
        },
        {
            "bufferView": 13,
            "byteOffset": 0,
            "componentType": 5126,
            "count": 1719,
            "type": "VEC3",
            "max": [
                0.9955264329910278,
                0.9996877312660217,
                0.999621570110321
            ],
            "min": [
                -0.8871758580207825,
                -0.9996877312660217,
                -0.9827789664268494
            ]
        },
        {
            "bufferView": 14,
            "byteOffset": 0,
            "componentType": 5125,
            "count": 1719,
            "type": "SCALAR",
            "max": [
                1718
            ],
            "min": [
                0
            ]
        },
        {
            "bufferView": 15,
            "byteOffset": 0,
            "componentType": 5126,
            "count": 5880,
            "type": "VEC3",
            "max": [
                93.16790771484375,
                0.44402432441711428,
                60.17879104614258
            ],
            "min": [
                -33.83209228515625,
                -1.2167117595672608,
                -49.32120895385742
            ]
        },
        {
            "bufferView": 16,
            "byteOffset": 0,
            "componentType": 5126,
            "count": 5880,
            "type": "VEC3",
            "max": [
                0.9993261098861694,
                0.9999997615814209,
                0.9999164938926697
            ],
            "min": [
                -0.9993261098861694,
                -0.9999997615814209,
                -0.9999164938926697
            ]
        },
        {
            "bufferView": 17,
            "byteOffset": 0,
            "componentType": 5125,
            "count": 5880,
            "type": "SCALAR",
            "max": [
                5879
            ],
            "min": [
                0
            ]
        },
        {
            "bufferView": 18,
            "byteOffset": 0,
            "componentType": 5126,
            "count": 5880,
            "type": "VEC3",
            "max": [
                93.16790771484375,
                0.34403347969055178,
                60.17879104614258
            ],
            "min": [
                -33.83209228515625,
                -1.3667209148406983,
                -49.32120895385742
            ]
        },
        {
            "bufferView": 19,
            "byteOffset": 0,
            "componentType": 5126,
            "count": 5880,
            "type": "VEC3",
            "max": [
                0.9993261098861694,
                0.9999997615814209,
                0.9999164938926697
            ],
            "min": [
                -0.9993261098861694,
                -0.9999997615814209,
                -0.9999164938926697
            ]
        },
        {
            "bufferView": 20,
            "byteOffset": 0,
            "componentType": 5125,
            "count": 5880,
            "type": "SCALAR",
            "max": [
                5879
            ],
            "min": [
                0
            ]
        },
        {
            "bufferView": 21,
            "byteOffset": 0,
            "componentType": 5126,
            "count": 576,
            "type": "VEC3",
            "max": [
                35.41790771484375,
                -0.036734338849782947,
                14.178790092468262
            ],
            "min": [
                10.480406761169434,
                -0.38674044609069826,
                -10.821209907531739
            ]
        },
        {
            "bufferView": 22,
            "byteOffset": 0,
            "componentType": 5126,
            "count": 576,
            "type": "VEC3",
            "max": [
                0.9924001097679138,
                0.9998000860214233,
                0.9952207207679749
            ],
            "min": [
                -0.9924001097679138,
                -0.9998000860214233,
                -0.9952207207679749
            ]
        },
        {
            "bufferView": 23,
            "byteOffset": 0,
            "componentType": 5125,
            "count": 576,
            "type": "SCALAR",
            "max": [
                575
            ],
            "min": [
                0
            ]
        },
        {
            "bufferView": 24,
            "byteOffset": 0,
            "componentType": 5126,
            "count": 5304,
            "type": "VEC3",
            "max": [
                93.16790771484375,
                0.19402432441711427,
                60.17879104614258
            ],
            "min": [
                -33.83209228515625,
                -1.6667239665985108,
                -49.32120895385742
            ]
        },
        {
            "bufferView": 25,
            "byteOffset": 0,
            "componentType": 5126,
            "count": 5304,
            "type": "VEC3",
            "max": [
                0.9993261098861694,
                0.9999997615814209,
                0.9999164938926697
            ],
            "min": [
                -0.9993261098861694,
                -0.9999997615814209,
                -0.9999164938926697
            ]
        },
        {
            "bufferView": 26,
            "byteOffset": 0,
            "componentType": 5125,
            "count": 5304,
            "type": "SCALAR",
            "max": [
                5303
            ],
            "min": [
                0
            ]
        }
    ],
    "buffers": [
        {
            "byteLength": 899052,
            "uri": "result.bin"
        }
    ],
    "bufferViews": [
        {
            "buffer": 0,
            "byteOffset": 0,
            "byteLength": 32112,
            "target": 34962
        },
        {
            "buffer": 0,
            "byteOffset": 32112,
            "byteLength": 32112,
            "target": 34962
        },
        {
            "buffer": 0,
            "byteOffset": 64224,
            "byteLength": 10704,
            "target": 34963
        },
        {
            "buffer": 0,
            "byteOffset": 74928,
            "byteLength": 82440,
            "target": 34962
        },
        {
            "buffer": 0,
            "byteOffset": 157368,
            "byteLength": 82440,
            "target": 34962
        },
        {
            "buffer": 0,
            "byteOffset": 239808,
            "byteLength": 27480,
            "target": 34963
        },
        {
            "buffer": 0,
            "byteOffset": 267288,
            "byteLength": 6912,
            "target": 34962
        },
        {
            "buffer": 0,
            "byteOffset": 274200,
            "byteLength": 6912,
            "target": 34962
        },
        {
            "buffer": 0,
            "byteOffset": 281112,
            "byteLength": 2304,
            "target": 34963
        },
        {
            "buffer": 0,
            "byteOffset": 283416,
            "byteLength": 31536,
            "target": 34962
        },
        {
            "buffer": 0,
            "byteOffset": 314952,
            "byteLength": 31536,
            "target": 34962
        },
        {
            "buffer": 0,
            "byteOffset": 346488,
            "byteLength": 10512,
            "target": 34963
        },
        {
            "buffer": 0,
            "byteOffset": 357000,
            "byteLength": 20628,
            "target": 34962
        },
        {
            "buffer": 0,
            "byteOffset": 377628,
            "byteLength": 20628,
            "target": 34962
        },
        {
            "buffer": 0,
            "byteOffset": 398256,
            "byteLength": 6876,
            "target": 34963
        },
        {
            "buffer": 0,
            "byteOffset": 405132,
            "byteLength": 70560,
            "target": 34962
        },
        {
            "buffer": 0,
            "byteOffset": 475692,
            "byteLength": 70560,
            "target": 34962
        },
        {
            "buffer": 0,
            "byteOffset": 546252,
            "byteLength": 23520,
            "target": 34963
        },
        {
            "buffer": 0,
            "byteOffset": 569772,
            "byteLength": 70560,
            "target": 34962
        },
        {
            "buffer": 0,
            "byteOffset": 640332,
            "byteLength": 70560,
            "target": 34962
        },
        {
            "buffer": 0,
            "byteOffset": 710892,
            "byteLength": 23520,
            "target": 34963
        },
        {
            "buffer": 0,
            "byteOffset": 734412,
            "byteLength": 6912,
            "target": 34962
        },
        {
            "buffer": 0,
            "byteOffset": 741324,
            "byteLength": 6912,
            "target": 34962
        },
        {
            "buffer": 0,
            "byteOffset": 748236,
            "byteLength": 2304,
            "target": 34963
        },
        {
            "buffer": 0,
            "byteOffset": 750540,
            "byteLength": 63648,
            "target": 34962
        },
        {
            "buffer": 0,
            "byteOffset": 814188,
            "byteLength": 63648,
            "target": 34962
        },
        {
            "buffer": 0,
            "byteOffset": 877836,
            "byteLength": 21216,
            "target": 34963
        }
    ],
    "materials": [
        {
            "name": "material",
            "pbrMetallicRoughness": {
                "baseColorFactor": [
                    0.13286831974983216,
                    0.13286831974983216,
                    0.13286831974983216,
                    1.0
                ],
                "metallicFactor": 0.5,
                "roughnessFactor": 0.5
            }
        },
        {
            "name": "material",
            "pbrMetallicRoughness": {
                "baseColorFactor": [
                    0.5271151065826416,
                    0.5271151065826416,
                    0.5271151065826416,
                    1.0
                ],
                "metallicFactor": 0.5,
                "roughnessFactor": 0.5
            }
        },
        {
            "name": "material",
            "pbrMetallicRoughness": {
                "baseColorFactor": [
                    0.3762621283531189,
                    0.28314873576164248,
                    0.08437620848417282,
                    1.0
                ],
                "metallicFactor": 0.5,
                "roughnessFactor": 0.5
            }
        },
        {
            "name": "material",
            "pbrMetallicRoughness": {
                "baseColorFactor": [
                    1.0,
                    0.21223075687885285,
                    0.21223075687885285,
                    1.0
                ],
                "metallicFactor": 0.5,
                "roughnessFactor": 0.5
            }
        },
        {
            "name": "material",
            "pbrMetallicRoughness": {
                "baseColorFactor": [
                    0.013702083379030228,
                    0.21223075687885285,
                    0.0,
                    1.0
                ],
                "metallicFactor": 0.5,
                "roughnessFactor": 0.5
            }
        },
        {
            "name": "material",
            "pbrMetallicRoughness": {
                "baseColorFactor": [
                    0.03310476616024971,
                    0.03310476616024971,
                    0.03310476616024971,
                    1.0
                ],
                "metallicFactor": 0.5,
                "roughnessFactor": 0.5
            }
        },
        {
            "name": "material",
            "pbrMetallicRoughness": {
                "baseColorFactor": [
                    0.3762621283531189,
                    0.08437620848417282,
                    0.0,
                    1.0
                ],
                "metallicFactor": 0.5,
                "roughnessFactor": 0.5
            }
        },
        {
            "name": "material",
            "pbrMetallicRoughness": {
                "baseColorFactor": [
                    0.019382361322641374,
                    0.05448027700185776,
                    0.07227185368537903,
                    1.0
                ],
                "metallicFactor": 0.5,
                "roughnessFactor": 0.5
            }
        },
        {
            "name": "material",
            "pbrMetallicRoughness": {
                "baseColorFactor": [
                    1.0,
                    0.520995557308197,
                    0.0,
                    1.0
                ],
                "metallicFactor": 0.5,
                "roughnessFactor": 0.5
            }
        },
        {
            "name": "material"
        }
    ],
    "meshes": [
        {
            "name": "meshes[0]",
            "primitives": [
                {
                    "mode": 4,
                    "material": 0,
                    "indices": 2,
                    "attributes": {
                        "POSITION": 0,
                        "NORMAL": 1
                    }
                }
            ]
        },
        {
            "name": "meshes[1]",
            "primitives": [
                {
                    "mode": 4,
                    "material": 1,
                    "indices": 5,
                    "attributes": {
                        "POSITION": 3,
                        "NORMAL": 4
                    }
                }
            ]
        },
        {
            "name": "meshes[2]",
            "primitives": [
                {
                    "mode": 4,
                    "material": 2,
                    "indices": 8,
                    "attributes": {
                        "POSITION": 6,
                        "NORMAL": 7
                    }
                }
            ]
        },
        {
            "name": "meshes[3]",
            "primitives": [
                {
                    "mode": 4,
                    "material": 3,
                    "indices": 11,
                    "attributes": {
                        "POSITION": 9,
                        "NORMAL": 10
                    }
                }
            ]
        },
        {
            "name": "meshes[4]",
            "primitives": [
                {
                    "mode": 4,
                    "material": 4,
                    "indices": 14,
                    "attributes": {
                        "POSITION": 12,
                        "NORMAL": 13
                    }
                }
            ]
        },
        {
            "name": "meshes[5]",
            "primitives": [
                {
                    "mode": 4,
                    "material": 5,
                    "indices": 17,
                    "attributes": {
                        "POSITION": 15,
                        "NORMAL": 16
                    }
                }
            ]
        },
        {
            "name": "meshes[6]",
            "primitives": [
                {
                    "mode": 4,
                    "material": 6,
                    "indices": 20,
                    "attributes": {
                        "POSITION": 18,
                        "NORMAL": 19
                    }
                }
            ]
        },
        {
            "name": "meshes[7]",
            "primitives": [
                {
                    "mode": 4,
                    "material": 7,
                    "indices": 23,
                    "attributes": {
                        "POSITION": 21,
                        "NORMAL": 22
                    }
                }
            ]
        },
        {
            "name": "meshes[8]",
            "primitives": [
                {
                    "mode": 4,
                    "material": 8,
                    "indices": 26,
                    "attributes": {
                        "POSITION": 24,
                        "NORMAL": 25
                    }
                }
            ]
        }
    ],
    "nodes": [
        {
            "name": "nodes[9]",
            "children": [
                1,
                2,
                3,
                4,
                5,
                6,
                7,
                8,
                9
            ]
        },
        {
            "name": "nodes[0]",
            "mesh": 0
        },
        {
            "name": "nodes[1]",
            "mesh": 1
        },
        {
            "name": "nodes[2]",
            "mesh": 2
        },
        {
            "name": "nodes[3]",
            "mesh": 3
        },
        {
            "name": "nodes[4]",
            "mesh": 4
        },
        {
            "name": "nodes[5]",
            "mesh": 5
        },
        {
            "name": "nodes[6]",
            "mesh": 6
        },
        {
            "name": "nodes[7]",
            "mesh": 7
        },
        {
            "name": "nodes[8]",
            "mesh": 8
        }
    ],
    "scenes": [
        {
            "nodes": [
                0
            ]
        }
    ],
    "scene": 0
}